<svg version="1.1" xmlns="http://www.w3.org/2000/svg" viewBox="0 0 1321.39453125 702.4765625" width="2642.7890625" height="1404.953125">
  <!-- svg-source:excalidraw -->
  
  <defs>
    <style>
      @font-face {
        font-family: "Virgil";
        src: url("https://excalidraw.com/Virgil.woff2");
      }
      @font-face {
        font-family: "Cascadia";
        src: url("https://excalidraw.com/Cascadia.woff2");
      }
    </style>
  </defs>
  <rect x="0" y="0" width="1321.39453125" height="702.4765625" fill="#ffffff"></rect><g stroke-linecap="round" transform="translate(235.67578125 153.1015625) rotate(0 54.119140625 64.6328125)"><path d="M0.83 -0.42 C40.42 2.05, 84.94 0.49, 109.87 -1.75 M-0.17 0.03 C22.84 -1.56, 43.64 -1.46, 108.58 -0.41 M110.05 0.6 C110.75 25.58, 110.44 51.97, 106.72 127.87 M107.86 0.63 C108.62 41.34, 108.41 80.59, 107.96 128.82 M108.88 130.2 C68.13 131.71, 26.88 130.44, -1.62 128.25 M108.58 129.12 C76.88 129.18, 47.59 130.37, -0.47 128.28 M0.11 128.61 C-1.09 78.82, -0.15 29.07, -0.16 1.34 M-0.05 130.12 C-0.03 88.53, 1.36 46.72, -0.91 0.05" stroke="#000000" stroke-width="1" fill="none"></path></g><g transform="translate(175.794921875 205.578125) rotate(0 114 12.5)"><text x="114" y="18" font-family="Virgil, Segoe UI Emoji" font-size="20px" fill="#000000" text-anchor="middle" style="white-space: pre;" direction="ltr">placing trade request 1</text></g><g stroke-linecap="round" transform="translate(498.85546875 186.6796875) rotate(0 62.041015625 24.96875)"><path d="M0.55 -0.4 C49.49 -1.18, 96.45 -2.94, 122.13 0.55 M-0.11 -0.63 C30.21 1.64, 59.96 0.18, 124.32 0.8 M124.75 -1.87 C124.41 12.65, 124.82 27.16, 124.84 50.27 M124.14 0.95 C123.85 20.61, 124.6 39.6, 124.73 50.12 M124.45 50.78 C86.33 48.73, 46.48 50.49, 1.69 51.48 M123.88 49.63 C95.77 49.17, 69.32 48.48, -0.54 49.68 M-0.11 49.78 C0.73 40.66, -1.17 26.71, 1.07 0.9 M-0.42 49.11 C0.59 32.89, 0.48 15.33, -0.83 1" stroke="#000000" stroke-width="1" fill="none"></path></g><g transform="translate(532.896484375 199.1484375) rotate(0 28 12.5)"><text x="28" y="18" font-family="Virgil, Segoe UI Emoji" font-size="20px" fill="#000000" text-anchor="middle" style="white-space: pre;" direction="ltr">queue</text></g><g stroke-linecap="round" transform="translate(715.89453125 143.76171875) rotate(0 70.7265625 74.166015625)"><path d="M-1.36 -1.32 C42.41 -0.29, 83.54 0.35, 141.49 -0.83 M0.86 -0.29 C29.95 0.85, 62.43 -0.65, 141.51 0.68 M141.35 -1.82 C140.39 30.97, 140.7 61.11, 140.62 148.98 M142.19 0.08 C141.84 49.49, 141.35 100.39, 141.72 148.69 M139.5 146.67 C90.01 148.19, 40.02 147.98, 1.36 148.17 M140.88 147.36 C105.08 149.27, 69.73 148.68, -0.5 149.16 M0.88 149.65 C-0.3 98.55, -1.48 51.92, -0.66 1.57 M-0.87 148.17 C-0.91 113.1, -0.54 76.62, 0.02 -0.21" stroke="#000000" stroke-width="1" fill="none"></path></g><g transform="translate(724.12109375 205.427734375) rotate(0 62.5 12.5)"><text x="62.5" y="18" font-family="Virgil, Segoe UI Emoji" font-size="20px" fill="#000000" text-anchor="middle" style="white-space: pre;" direction="ltr">place order 1</text></g><g stroke-linecap="round" transform="translate(723.23828125 376.3984375) rotate(0 69.8828125 42.3671875)"><path d="M1.5 0.69 C29.44 -0.21, 60.95 1.55, 137.8 0.25 M-0.94 0.23 C38.26 -1.77, 74.77 -1.65, 139.38 0.16 M138.03 0.59 C138.33 18.31, 140.41 40.93, 140.93 85.83 M140.68 0.18 C141.02 17.64, 141.18 36.04, 139.84 84.96 M141.72 85.83 C92.28 84.83, 48.01 83.74, 1.66 86.22 M139.66 85.1 C105.04 83.6, 70 82.56, -0.63 85.44 M-1.21 82.98 C0.77 64.84, -0.65 42.75, 1.65 -0.53 M-0.04 85.58 C0.23 54.74, 1.2 24.16, -0.77 0.68" stroke="#000000" stroke-width="1" fill="none"></path></g><g transform="translate(668.0078125 408.796875) rotate(0 126 12.5)"><text x="126" y="18" font-family="Virgil, Segoe UI Emoji" font-size="20px" fill="#000000" text-anchor="middle" style="white-space: pre;" direction="ltr">price fetch for exchanges</text></g><g stroke-linecap="round" transform="translate(592.68359375 316.1953125) rotate(0 35.451171875 31.41796875)"><path d="M1.62 -1.12 C27.26 -0.62, 55.95 -2.19, 70.8 0.35 M-0.85 0.83 C16.82 0.65, 33.37 -0.09, 70.02 -0.27 M72.73 1.64 C71.5 13.13, 71.64 28.34, 69.97 61.8 M71.71 0.8 C71.85 19.17, 72 37.01, 69.97 63.27 M72.55 64.13 C43.68 63.31, 19.69 63.61, 0.44 61 M71.1 62.27 C51.15 61.74, 30.99 61.5, 0.09 63.69 M1.88 62.37 C-1.26 40.3, 1.83 18.25, 1.36 0.71 M0.62 62.98 C-1.3 44.21, -0.49 26.74, 0.74 0.61" stroke="#000000" stroke-width="1" fill="none"></path></g><g transform="translate(595.134765625 335.11328125) rotate(0 33 12.5)"><text x="33" y="18" font-family="Virgil, Segoe UI Emoji" font-size="20px" fill="#000000" text-anchor="middle" style="white-space: pre;" direction="ltr">REDIS</text></g><g stroke-linecap="round"><g transform="translate(723.16015625 389.87890625) rotate(0 -30.590150883989395 -13.25604960466734)"><path d="M-0.68 0.62 C-10.94 -3.65, -52.02 -20.96, -62.34 -25.41 M1.16 -0.1 C-8.63 -4.73, -49.78 -23.04, -60.01 -27.13" stroke="#000000" stroke-width="1" fill="none"></path></g><g transform="translate(723.16015625 389.87890625) rotate(0 -30.590150883989395 -13.25604960466734)"><path d="M-29.02 -26.74 C-35.75 -27.76, -43.77 -24.73, -59.07 -28.71 M-30.93 -25.87 C-36.65 -26.46, -43.88 -26.01, -60.15 -26.46" stroke="#000000" stroke-width="1" fill="none"></path></g><g transform="translate(723.16015625 389.87890625) rotate(0 -30.590150883989395 -13.25604960466734)"><path d="M-37.07 -7.86 C-41.97 -13.22, -48.13 -14.57, -59.07 -28.71 M-38.98 -7 C-42.93 -12.13, -48.22 -16.24, -60.15 -26.46" stroke="#000000" stroke-width="1" fill="none"></path></g></g><g stroke-linecap="round"><g transform="translate(714.296875 271.484375) rotate(0 -27.93699620084834 21.562067635851008)"><path d="M-0.87 -0.7 C-10.37 6.57, -46.82 35.18, -56.11 42.51 M0.88 1.54 C-8.8 9.09, -47.06 37.23, -56.75 43.83" stroke="#000000" stroke-width="1" fill="none"></path></g><g transform="translate(714.296875 271.484375) rotate(0 -27.93699620084834 21.562067635851008)"><path d="M-40.93 20.07 C-47.02 28.39, -52.08 38.94, -55.44 42.68 M-40.28 19.96 C-43.89 26.31, -49.53 34.04, -56.78 44.2" stroke="#000000" stroke-width="1" fill="none"></path></g><g transform="translate(714.296875 271.484375) rotate(0 -27.93699620084834 21.562067635851008)"><path d="M-29.01 36.78 C-39.39 38.79, -48.89 43.11, -55.44 42.68 M-28.37 36.67 C-35.41 38.05, -44.53 40.91, -56.78 44.2" stroke="#000000" stroke-width="1" fill="none"></path></g></g><g transform="translate(406.6484375 546.23828125) rotate(0 103 69)"><text x="0" y="16" font-family="Virgil, Segoe UI Emoji" font-size="17.617422324732726px" fill="#000000" text-anchor="start" style="white-space: pre;" direction="ltr">exchange1 ETH 100 12</text><text x="0" y="39" font-family="Virgil, Segoe UI Emoji" font-size="17.617422324732726px" fill="#000000" text-anchor="start" style="white-space: pre;" direction="ltr">exhange2 ETH 120 8</text><text x="0" y="62" font-family="Virgil, Segoe UI Emoji" font-size="17.617422324732726px" fill="#000000" text-anchor="start" style="white-space: pre;" direction="ltr"></text><text x="0" y="85" font-family="Virgil, Segoe UI Emoji" font-size="17.617422324732726px" fill="#000000" text-anchor="start" style="white-space: pre;" direction="ltr"></text><text x="0" y="108" font-family="Virgil, Segoe UI Emoji" font-size="17.617422324732726px" fill="#000000" text-anchor="start" style="white-space: pre;" direction="ltr">exchange21 BTC 120 8</text><text x="0" y="131" font-family="Virgil, Segoe UI Emoji" font-size="17.617422324732726px" fill="#000000" text-anchor="start" style="white-space: pre;" direction="ltr">exchange22 BTC 120 6</text></g><g transform="translate(412.796875 394.64453125) rotate(0 105.5 25)"><text x="0" y="18" font-family="Virgil, Segoe UI Emoji" font-size="20px" fill="#000000" text-anchor="start" style="white-space: pre;" direction="ltr">ETH 100 exchange1</text><text x="0" y="43" font-family="Virgil, Segoe UI Emoji" font-size="20px" fill="#000000" text-anchor="start" style="white-space: pre;" direction="ltr">BTC 120 exchange22</text></g><g stroke-linecap="round"><g transform="translate(352.9705860216692 197.1781571814846) rotate(0 76.0263557556197 0.3527505679171128)"><path d="M1.18 -0.74 C26.52 -0.91, 126.41 -0.6, 151.71 -0.41 M0.35 1.49 C25.51 1.46, 125.12 1.58, 150.5 1.07" stroke="#000000" stroke-width="1" fill="none"></path></g><g transform="translate(352.9705860216692 197.1781571814846) rotate(0 76.0263557556197 0.3527505679171128)"><path d="M121.16 10.73 C129.88 9.7, 138.97 5.88, 150.76 1.42 M121.49 10.63 C130.08 8.11, 138.05 6.04, 151.17 0.08" stroke="#000000" stroke-width="1" fill="none"></path></g><g transform="translate(352.9705860216692 197.1781571814846) rotate(0 76.0263557556197 0.3527505679171128)"><path d="M121 -9.79 C129.86 -5.18, 139 -3.36, 150.76 1.42 M121.32 -9.9 C130.11 -6.64, 138.13 -2.93, 151.17 0.08" stroke="#000000" stroke-width="1" fill="none"></path></g></g><g stroke-linecap="round"><g transform="translate(625.31640625 198.52959314178898) rotate(0 46.98229485460172 -1.889582276727097)"><path d="M-0.54 -0.34 C15.22 -0.79, 78.82 -1.3, 94.5 -1.8 M1.38 -1.56 C17.05 -2.43, 78.77 -3.32, 93.99 -3.44" stroke="#000000" stroke-width="1" fill="none"></path></g><g transform="translate(625.31640625 198.52959314178898) rotate(0 46.98229485460172 -1.889582276727097)"><path d="M65.37 8.56 C75.71 3.96, 81.58 0.2, 95.56 -5.04 M66.15 7.93 C76.37 3.9, 88.85 -1, 94.27 -3.44" stroke="#000000" stroke-width="1" fill="none"></path></g><g transform="translate(625.31640625 198.52959314178898) rotate(0 46.98229485460172 -1.889582276727097)"><path d="M65.12 -11.96 C75.7 -10.45, 81.64 -8.1, 95.56 -5.04 M65.89 -12.59 C76.04 -8.53, 88.63 -5.33, 94.27 -3.44" stroke="#000000" stroke-width="1" fill="none"></path></g></g><g transform="translate(535.39453125 130.23828125) rotate(0 84.5 25)"><text x="0" y="18" font-family="Virgil, Segoe UI Emoji" font-size="20px" fill="#000000" text-anchor="start" style="white-space: pre;" direction="ltr">user1 ETH 1 sch</text><text x="0" y="43" font-family="Virgil, Segoe UI Emoji" font-size="20px" fill="#000000" text-anchor="start" style="white-space: pre;" direction="ltr">user2 BTC 2 rlt</text></g><g transform="translate(886.21875 191.68359375) rotate(0 92.5 25)"><text x="0" y="18" font-family="Virgil, Segoe UI Emoji" font-size="20px" fill="#000000" text-anchor="start" style="white-space: pre;" direction="ltr">user1 ETH 1 100</text><text x="0" y="43" font-family="Virgil, Segoe UI Emoji" font-size="20px" fill="#000000" text-anchor="start" style="white-space: pre;" direction="ltr">user2 BTC 2 240</text></g><g transform="translate(305.9140625 398.2265625) rotate(0 15 12.5)"><text x="15" y="18" font-family="Virgil, Segoe UI Emoji" font-size="20px" fill="#000000" text-anchor="middle" style="white-space: pre;" direction="ltr">DB</text></g><g transform="translate(184.6796875 456.921875) rotate(0 121 25)"><text x="0" y="18" font-family="Virgil, Segoe UI Emoji" font-size="20px" fill="#000000" text-anchor="start" style="white-space: pre;" direction="ltr">user11 BTC 1 11:10:10 AM</text><text x="0" y="43" font-family="Virgil, Segoe UI Emoji" font-size="20px" fill="#000000" text-anchor="start" style="white-space: pre;" direction="ltr">user22 BCH 3 11:12:11 AM</text></g><g transform="translate(433.39453125 155.23828125) rotate(0 43.5 12.5)"><text x="0" y="18" font-family="Virgil, Segoe UI Emoji" font-size="20px" fill="#000000" text-anchor="start" style="white-space: pre;" direction="ltr">real time</text></g><g stroke-linecap="round" transform="translate(180.92578125 605.97265625) rotate(0 59.69140625 24.830078125)"><path d="M-0.73 1.88 C43.66 1.8, 86.92 1.84, 119.18 -0.47 M-0.56 -0.66 C24.67 -1.57, 48.3 -1.41, 119.28 0.1 M120.44 1.53 C119.65 17.39, 119.87 37.41, 118.79 50.34 M119.11 -0.64 C120 18.34, 120.18 38.97, 118.96 49.88 M120.55 48.48 C86.35 50.4, 52.88 48.33, 0.69 48.46 M119.05 49.45 C85.32 49.67, 48.58 50.4, -0.11 50.19 M-1.3 51.37 C-0.55 32.28, -1.48 16.67, 0.81 -0.28 M-0.28 48.94 C0.14 36.88, -0.31 26.26, 1 -0.25" stroke="#000000" stroke-width="1" fill="none"></path></g><g transform="translate(212.4765625 619.369140625) rotate(0 27 12.5)"><text x="27" y="18" font-family="Virgil, Segoe UI Emoji" font-size="20px" fill="#000000" text-anchor="middle" style="white-space: pre;" direction="ltr">CRON</text></g><g stroke-linecap="round"><g transform="translate(191.86328125 606.94140625) rotate(0 9.940042185913768 -111.09020167933272)"><path d="M0.56 -0.15 C3.44 -36.84, 15.3 -183.48, 18.17 -220.36 M-0.61 -1.27 C2.59 -38.28, 17.04 -185.55, 20.49 -222.03" stroke="#000000" stroke-width="1" fill="none"></path></g><g transform="translate(191.86328125 606.94140625) rotate(0 9.940042185913768 -111.09020167933272)"><path d="M27.75 -194.23 C26.66 -205.69, 22.11 -213.58, 19.23 -223.26 M28.15 -192.56 C25.3 -202.69, 22.74 -213.44, 20.58 -222.29" stroke="#000000" stroke-width="1" fill="none"></path></g><g transform="translate(191.86328125 606.94140625) rotate(0 9.940042185913768 -111.09020167933272)"><path d="M7.33 -196.2 C13.84 -207.02, 16.91 -214.17, 19.23 -223.26 M7.72 -194.52 C11.96 -204.11, 16.49 -214.18, 20.58 -222.29" stroke="#000000" stroke-width="1" fill="none"></path></g></g><g transform="translate(269.39453125 543.23828125) rotate(0 48.5 12.5)"><text x="0" y="18" font-family="Virgil, Segoe UI Emoji" font-size="20px" fill="#000000" text-anchor="start" style="white-space: pre;" direction="ltr">11:10:10 AM</text></g><g stroke-linecap="round"><g transform="translate(329.375 362.87350219914674) rotate(0 83.65376611573618 -69.12856844978626)"><path d="M-0.23 -1.01 C27.53 -24.41, 138.87 -116.28, 166.72 -139.33 M-1.8 1.07 C26.34 -21.66, 141.16 -114.9, 169.11 -138.13" stroke="#000000" stroke-width="1" fill="none"></path></g><g transform="translate(329.375 362.87350219914674) rotate(0 83.65376611573618 -69.12856844978626)"><path d="M152.14 -113.33 C157.31 -121.12, 162.11 -129.74, 170.77 -138.19 M154.64 -113.21 C159.85 -121.64, 165.01 -129.71, 168.33 -138.47" stroke="#000000" stroke-width="1" fill="none"></path></g><g transform="translate(329.375 362.87350219914674) rotate(0 83.65376611573618 -69.12856844978626)"><path d="M139.12 -129.2 C148.51 -131.99, 157.4 -135.63, 170.77 -138.19 M141.63 -129.08 C150.97 -132.27, 160.39 -135.15, 168.33 -138.47" stroke="#000000" stroke-width="1" fill="none"></path></g></g><g stroke-linecap="round"><g transform="translate(234.45360118540611 245.5703125) rotate(0 -8.663337260414181 40.212320483736676)"><path d="M-0.39 1.18 C-3.59 14.29, -15.19 65.34, -18.36 78.33 M1.6 0.75 C-1.76 14.06, -15.26 66.96, -18.93 79.67" stroke="#000000" stroke-width="1" fill="none"></path></g><g transform="translate(234.45360118540611 245.5703125) rotate(0 -8.663337260414181 40.212320483736676)"><path d="M-19.55 51 C-21.28 60.16, -18.97 71.81, -20.39 79.11 M-21.87 49.68 C-20.86 58.48, -19.99 66.56, -19.53 80.11" stroke="#000000" stroke-width="1" fill="none"></path></g><g transform="translate(234.45360118540611 245.5703125) rotate(0 -8.663337260414181 40.212320483736676)"><path d="M0.27 56.33 C-8.71 63.47, -13.67 73.17, -20.39 79.11 M-2.06 55.01 C-6.55 62.48, -11.14 69.1, -19.53 80.11" stroke="#000000" stroke-width="1" fill="none"></path></g></g><g transform="translate(187.39453125 271.23828125) rotate(0 75 12.5)"><text x="0" y="18" font-family="Virgil, Segoe UI Emoji" font-size="20px" fill="#000000" text-anchor="start" style="white-space: pre;" direction="ltr">schedule/cancel</text></g><g stroke-linecap="round" transform="translate(942.8046875 504.65625) rotate(0 100.109375 33.18359375)"><path d="M0.71 1.28 C64.66 -1.75, 130.74 -0.87, 199.45 -1.51 M-0.71 -0.45 C63.02 0.28, 126.86 -0.23, 199.74 0.74 M198.96 0.41 C200.57 15.94, 199.12 37.28, 198.98 65.45 M200.54 -0.25 C200.22 23.94, 200.67 47.26, 200.39 65.91 M201.32 66.98 C120.3 67.39, 44.72 64.55, -1.15 66.41 M199.78 65.75 C127.69 66.34, 54.21 67.75, 0.48 66.55 M1.9 67.57 C0.09 46.68, 0.49 27.97, 0.4 -1.57 M-0.94 66.09 C0.89 42.63, 1.13 19.89, 0.72 -0.76" stroke="#000000" stroke-width="1" fill="none"></path></g><g transform="translate(987.9140625 525.33984375) rotate(0 55 12.5)"><text x="55" y="18" font-family="Virgil, Segoe UI Emoji" font-size="20px" fill="#000000" text-anchor="middle" style="white-space: pre;" direction="ltr">user wallet</text></g><g stroke-linecap="round" transform="translate(960.109375 310.78125) rotate(0 28.99609375 45.634765625)"><path d="M-1.38 0.66 C12.52 -0.48, 29.32 1.34, 58.4 -0.01 M0.6 -0.24 C12.62 -0.59, 25.73 -0.35, 57.21 0.49 M57.43 1.49 C57.09 27.34, 57.91 52.2, 56.46 89.57 M57.52 -0.02 C57.82 35.81, 58.99 70.98, 57.5 91.74 M59.69 90.23 C40.72 91.79, 27.22 89.63, -1.63 93.01 M58.72 90.42 C35.25 91.64, 11.16 91.47, 0.03 90.85 M-1.18 92.66 C0.25 67.27, 1.8 44.1, 0.47 1.61 M-0.24 91.22 C-0.09 73.63, -0.18 54.15, 0.66 1" stroke="#000000" stroke-width="1" fill="none"></path></g><g transform="translate(961.10546875 343.916015625) rotate(0 28 12.5)"><text x="28" y="18" font-family="Virgil, Segoe UI Emoji" font-size="20px" fill="#000000" text-anchor="middle" style="white-space: pre;" direction="ltr">queue</text></g><g stroke-linecap="round"><g transform="translate(858.51953125 269.2578125) rotate(0 50.894894269062206 28.232060309248055)"><path d="M0.97 -1.16 C17.76 8.17, 85.19 46.66, 101.77 56.29 M0.01 0.84 C16.65 10.32, 84.77 48.12, 101.36 57.63" stroke="#000000" stroke-width="1" fill="none"></path></g><g transform="translate(858.51953125 269.2578125) rotate(0 50.894894269062206 28.232060309248055)"><path d="M69.82 54.44 C82.54 53.9, 94.49 57.64, 103.16 58.82 M71.4 52.23 C80.89 54.42, 88.29 55.3, 101.03 58.12" stroke="#000000" stroke-width="1" fill="none"></path></g><g transform="translate(858.51953125 269.2578125) rotate(0 50.894894269062206 28.232060309248055)"><path d="M79.89 36.56 C88.77 42.99, 96.84 53.62, 103.16 58.82 M81.47 34.35 C88.1 41.92, 92.52 48.07, 101.03 58.12" stroke="#000000" stroke-width="1" fill="none"></path></g></g><g stroke-linecap="round"><g transform="translate(1000.94921875 402.875) rotate(0 18.468103769049094 49.64377691578119)"><path d="M-0.71 -0.51 C5.37 16.04, 31.27 82.82, 37.64 99.73 M1.12 -1.82 C7.01 14.87, 31.09 84.29, 37.08 101.11" stroke="#000000" stroke-width="1" fill="none"></path></g><g transform="translate(1000.94921875 402.875) rotate(0 18.468103769049094 49.64377691578119)"><path d="M17.22 79.15 C25.24 88.29, 34.86 96.68, 36.08 102.16 M17.26 78.74 C24.5 85.24, 30.22 91.75, 36.79 101.67" stroke="#000000" stroke-width="1" fill="none"></path></g><g transform="translate(1000.94921875 402.875) rotate(0 18.468103769049094 49.64377691578119)"><path d="M36.58 72.35 C36.91 84.09, 38.82 95.19, 36.08 102.16 M36.63 71.94 C37.66 80.58, 37.22 89.25, 36.79 101.67" stroke="#000000" stroke-width="1" fill="none"></path></g></g><g transform="translate(984.39453125 426.23828125) rotate(0 131.5 12.5)"><text x="0" y="18" font-family="Virgil, Segoe UI Emoji" font-size="20px" fill="#000000" text-anchor="start" style="white-space: pre;" direction="ltr">user1 ETH 1 11:13:10 AM 100</text></g><g stroke-linecap="round" transform="translate(931.625 603.36328125) rotate(0 139.21875 44.556640625)"><path d="M0.79 -0.07 C65.76 -0.72, 128.55 -1.71, 278.7 -1.3 M0.11 -0.74 C81.6 -0.37, 162.29 -0.1, 278.09 0.18 M279.65 -1.36 C279.38 21.37, 277.76 44.79, 276.89 88.01 M277.45 -0.92 C277.93 23.04, 278.23 46.66, 278.69 89.32 M279.96 89.62 C212.34 90.05, 150.16 88.03, 1.44 90.04 M279.01 88.43 C201.07 90.4, 123.22 89.28, -0.4 89.68 M-1.47 89.52 C-1.48 59.64, 0.74 29.47, -1.73 -0.24 M-0.79 89.82 C-0.9 70.94, -1.15 51.38, 0.89 -0.46" stroke="#000000" stroke-width="1" fill="none"></path></g><g transform="translate(1034.39453125 608.23828125) rotate(0 35.5 12.5)"><text x="0" y="18" font-family="Virgil, Segoe UI Emoji" font-size="20px" fill="#000000" text-anchor="start" style="white-space: pre;" direction="ltr">RDBMS</text></g><g transform="translate(977.39453125 623.23828125) rotate(0 131.5 12.5)"><text x="0" y="18" font-family="Virgil, Segoe UI Emoji" font-size="20px" fill="#000000" text-anchor="start" style="white-space: pre;" direction="ltr">user1 ETH 1 11:13:10 AM 100</text></g><g stroke-linecap="round" transform="translate(293.3046875 384.51953125) rotate(0 28.873046875 23.0078125)"><path d="M-1.72 -0.87 C15.28 1.28, 30.29 0.84, 59.7 -1.55 M-0.77 -0.77 C16.44 0.41, 33.96 0.63, 57.04 -0.66 M59.58 -0.15 C57.66 13.28, 56.67 30.68, 56.73 47.27 M57.42 0.4 C57.26 15.4, 56.43 33.28, 56.96 46.13 M58.8 47.2 C45.97 44.53, 34.4 44.95, -0.73 44.19 M57.13 46.36 C38.8 46.08, 19.9 45.8, -0.78 45.36 M1.97 47.95 C-0.86 29.23, -2.09 10.74, -1.46 1.91 M0.29 46.23 C1 36.72, 1.01 26.01, 0.88 0.96" stroke="#000000" stroke-width="1" fill="none"></path></g><g stroke-linecap="round" transform="translate(178.0234375 341.46875) rotate(0 65.4921875 18.65234375)"><path d="M1.87 -1.58 C38.75 -0.46, 76.11 1.11, 132.04 1.19 M-0.53 -0.37 C43.96 -1.05, 90.17 -1.27, 130.37 0.35 M130.57 -1.57 C129.7 11.35, 131.46 17.73, 132.95 39.24 M131.74 -0.73 C132.24 9, 130.34 20.31, 131.27 37.52 M131.79 39.07 C86.23 38.11, 39.58 37.24, -1.32 37.97 M130.6 37.31 C80.09 37.87, 28.13 38.23, 0.13 36.96 M-1.98 38.16 C-2.12 28.23, -1.3 17.63, -0.69 0.77 M0 36.47 C-0.14 24.24, 0.56 12.89, 0.05 -0.26" stroke="#000000" stroke-width="1" fill="none"></path></g><g transform="translate(161.515625 347.62109375) rotate(0 82 12.5)"><text x="82" y="18" font-family="Virgil, Segoe UI Emoji" font-size="20px" fill="#000000" text-anchor="middle" style="white-space: pre;" direction="ltr">scheduler-service</text></g><g stroke-linecap="round"><g transform="translate(278.4375 380.59375) rotate(0 8.551498955888633 10.006561447549586)"><path d="M-0.88 1.15 C1.95 4.06, 12.68 15.25, 15.76 18.36 M0.86 0.7 C4.16 3.64, 15.24 16.48, 17.98 19.31" stroke="#000000" stroke-width="1" fill="none"></path></g><g transform="translate(278.4375 380.59375) rotate(0 8.551498955888633 10.006561447549586)"><path d="M7.85 12.33 C7.74 15.57, 11.6 16.09, 18.7 20.48 M7.24 13.35 C11.32 15.11, 14.34 17.71, 18.56 18.81" stroke="#000000" stroke-width="1" fill="none"></path></g><g transform="translate(278.4375 380.59375) rotate(0 8.551498955888633 10.006561447549586)"><path d="M14.35 6.43 C12.98 10.8, 15.53 12.51, 18.7 20.48 M13.73 7.45 C15.52 11.37, 16.22 16.09, 18.56 18.81" stroke="#000000" stroke-width="1" fill="none"></path></g></g><g stroke-linecap="round"><g transform="translate(173.3359375 363.5860596699948) rotate(0 -58.45408874615896 28.507376337501654)"><path d="M-0.31 -0.85 C-20.1 8.79, -98.22 48.27, -117.82 57.86 M1.72 1.32 C-18.28 10.57, -98.57 46.5, -118.63 55.87" stroke="#000000" stroke-width="1" fill="none"></path></g><g transform="translate(173.3359375 363.5860596699948) rotate(0 -58.45408874615896 28.507376337501654)"><path d="M-98.65 35.27 C-104.82 42.88, -114.75 50.59, -118.85 57.11 M-97.25 34.82 C-102.05 40.86, -108.21 46.54, -118.2 54.92" stroke="#000000" stroke-width="1" fill="none"></path></g><g transform="translate(173.3359375 363.5860596699948) rotate(0 -58.45408874615896 28.507376337501654)"><path d="M-90.13 53.94 C-99.5 54.55, -112.61 55.28, -118.85 57.11 M-88.73 53.49 C-96.09 54.38, -104.63 54.84, -118.2 54.92" stroke="#000000" stroke-width="1" fill="none"></path></g></g><g transform="translate(105.39453125 367.23828125) rotate(0 55.5 12.5)"><text x="0" y="18" font-family="Virgil, Segoe UI Emoji" font-size="20px" fill="#000000" text-anchor="start" style="white-space: pre;" direction="ltr">userid BTC</text></g><g stroke-linecap="round" transform="translate(155.431640625 116.3359375) rotate(0 54.119140625 64.6328125)"><path d="M0.89 1.37 C36.8 0.24, 73.37 -0.03, 107.02 1.08 M0.98 -0.48 C25.87 1.05, 50.31 0.45, 107.47 0.94 M109.92 0.85 C106.9 43.29, 107.7 83.8, 108.16 129.36 M109.15 0.41 C107.29 28.42, 108.1 56.36, 108.38 128.79 M107.8 130.74 C81.37 130.37, 56.96 131.61, 1.39 128.12 M107.4 129.88 C67.72 128.54, 26.8 128.72, 0.61 129.65 M0.22 128.06 C-0.85 95.03, -1.71 59.62, 0.18 1.5 M-0.38 128.57 C-0.8 88.73, -0.94 48.14, -0.42 -0.61" stroke="#000000" stroke-width="1" fill="none"></path></g><g transform="translate(186.39453125 141.55078125) rotate(0 118.5 12.5)"><text x="0" y="18" font-family="Virgil, Segoe UI Emoji" font-size="20px" fill="#000000" text-anchor="start" style="white-space: pre;" direction="ltr">placing trade request 2</text></g><g stroke-linecap="round" transform="translate(51.5859375 152.921875) rotate(0 26.3515625 23.650390625)"><path d="M-1.2 0.32 C22.11 -0.59, 43.05 0.12, 54.2 0.35 M-0.7 0.44 C21.4 0.51, 42.74 -0.22, 52.1 -0.44 M54.54 1.66 C53.46 12.45, 52.54 26.18, 51.8 48.68 M51.99 -0.07 C51.89 15.02, 51.87 29.05, 52.55 48.07 M53.76 45.81 C32.71 47.54, 14.53 48.69, -0.37 46.7 M52.23 46.5 C40.37 48.79, 30.25 48.66, 0 47.56 M-1.66 47.26 C1.01 28.4, 1.64 10.46, -0.12 0.19 M0.72 47.89 C0.12 32.39, 0.59 18.49, -0.44 -0.23" stroke="#000000" stroke-width="1" fill="none"></path></g><g transform="translate(58.4375 164.072265625) rotate(0 19.5 12.5)"><text x="19.5" y="18" font-family="Virgil, Segoe UI Emoji" font-size="20px" fill="#000000" text-anchor="middle" style="white-space: pre;" direction="ltr">LBS</text></g><g stroke-linecap="round"><g transform="translate(112.9140625 169.12890625) rotate(0 23.400669995006183 -11.816870697960255)"><path d="M-0.68 0.59 C6.99 -3.43, 37.42 -20.24, 45.15 -24.23 M1.16 -0.14 C9.29 -3.95, 40.21 -18.51, 47.48 -22.68" stroke="#000000" stroke-width="1" fill="none"></path></g><g transform="translate(112.9140625 169.12890625) rotate(0 23.400669995006183 -11.816870697960255)"><path d="M30.84 -4.86 C33.91 -8.21, 39.44 -10.86, 49.17 -22.2 M29.9 -3.28 C36.84 -10.52, 42.14 -17.84, 48.32 -21.69" stroke="#000000" stroke-width="1" fill="none"></path></g><g transform="translate(112.9140625 169.12890625) rotate(0 23.400669995006183 -11.816870697960255)"><path d="M22.74 -20.65 C27.65 -20.35, 35.03 -19.39, 49.17 -22.2 M21.8 -19.07 C31.49 -20.71, 39.64 -22.45, 48.32 -21.69" stroke="#000000" stroke-width="1" fill="none"></path></g></g><g stroke-linecap="round"><g transform="translate(115.72231074679644 185.93994923543184) rotate(0 54.917969473823916 20.0225066187419)"><path d="M-0.19 0.22 C18.3 7.1, 92.85 34.06, 111.58 40.75 M-1.75 -0.71 C16.56 5.88, 91.88 32.6, 110.83 39.11" stroke="#000000" stroke-width="1" fill="none"></path></g><g transform="translate(115.72231074679644 185.93994923543184) rotate(0 54.917969473823916 20.0225066187419)"><path d="M81.2 40.08 C92.92 41.02, 102.88 37.88, 111.76 38.8 M80.29 40.27 C90.35 39.71, 100.78 39.45, 110.42 38.53" stroke="#000000" stroke-width="1" fill="none"></path></g><g transform="translate(115.72231074679644 185.93994923543184) rotate(0 54.917969473823916 20.0225066187419)"><path d="M87.98 20.71 C97.22 28.47, 104.8 32.16, 111.76 38.8 M87.07 20.9 C94.91 27.06, 102.99 33.52, 110.42 38.53" stroke="#000000" stroke-width="1" fill="none"></path></g></g><g stroke-linecap="round" transform="translate(381.2421875 255.328125) rotate(0 34.431640625 25.4296875)"><path d="M1.58 1.43 C16.24 1.38, 37.55 0.5, 68.47 1.64 M-0.91 0.76 C24.27 -1.26, 49.52 -0.67, 68.4 0.23 M67.58 0.11 C67.29 9.27, 69.55 20.23, 67.69 52.01 M69.43 0.01 C67.62 10.97, 68.62 20.67, 69.56 51.46 M70.17 51.99 C50.78 49.6, 28.34 52.08, 1.02 50.84 M67.92 50.56 C44.39 51.08, 21.67 51.34, -0.71 50.66 M-0.64 52.57 C-0.43 29.98, 1.66 9.65, 1.59 1.51 M0.53 51.58 C-0.12 37.72, 0.59 23.28, -0.93 -0.64" stroke="#000000" stroke-width="1" fill="none"></path></g><g transform="translate(379.673828125 255.7578125) rotate(0 36 25)"><text x="36" y="18" font-family="Virgil, Segoe UI Emoji" font-size="20px" fill="#000000" text-anchor="middle" style="white-space: pre;" direction="ltr">repo</text><text x="36" y="43" font-family="Virgil, Segoe UI Emoji" font-size="20px" fill="#000000" text-anchor="middle" style="white-space: pre;" direction="ltr">reqid1  </text></g><g stroke-linecap="round" transform="translate(44.6875 263.34375) rotate(0 32.3125 27.388671875)"><path d="M-1.31 1.59 C14.24 0.37, 28.28 1.52, 64.16 0.86 M0.76 0.75 C25.24 0.09, 48.41 -0.96, 65.23 0.77 M63.34 -1.77 C66.31 14.91, 64.3 33.84, 66.25 53.92 M64.86 0.82 C64.39 15.26, 63.87 31.07, 64.25 54.32 M63.45 56.29 C46.94 55.81, 28.22 55.01, 1.11 55.21 M65.54 54.27 C49.5 54.33, 33.66 54.28, -0.08 54.12 M1.54 55.02 C-0.67 35.04, -1.01 15.73, 1.76 -0.81 M0.52 54.06 C-0.14 33.82, 0.07 15.04, -0.16 0.38" stroke="#000000" stroke-width="1" fill="none"></path></g><g transform="translate(10 278.232421875) rotate(0 67 12.5)"><text x="67" y="18" font-family="Virgil, Segoe UI Emoji" font-size="20px" fill="#000000" text-anchor="middle" style="white-space: pre;" direction="ltr">key generator</text></g><g transform="translate(60.39453125 232.23828125) rotate(0 32 25)"><text x="0" y="18" font-family="Virgil, Segoe UI Emoji" font-size="20px" fill="#000000" text-anchor="start" style="white-space: pre;" direction="ltr">1-100</text><text x="0" y="43" font-family="Virgil, Segoe UI Emoji" font-size="20px" fill="#000000" text-anchor="start" style="white-space: pre;" direction="ltr">2-200</text></g><g stroke-linecap="round" transform="translate(38.26171875 105.720703125) rotate(0 26.3515625 23.650390625)"><path d="M0.43 -1.17 C13.55 -1.35, 30.3 -1.31, 53.63 -0.2 M-0.65 0.55 C17.29 0.77, 34.7 0.16, 52.46 -0.14 M51.9 1.3 C54.25 11.07, 53.71 23.03, 53.29 45.39 M53.08 -0.28 C53.63 16.21, 52.82 32.78, 52.28 46.96 M54.1 47.58 C39.75 46.81, 25.87 48.33, 1.38 49.13 M52.18 48.08 C30.89 46.61, 11.24 47.5, -0.09 46.69 M0.46 46.75 C1.55 33.09, 0.13 14.73, 0.2 -0.18 M0.66 46.7 C0.7 35.22, 1.25 23.96, -0.97 0.39" stroke="#000000" stroke-width="1" fill="none"></path></g><g transform="translate(43.5947265625 119.1845703125) rotate(0 21 12.5)"><text x="21" y="18" font-family="Virgil, Segoe UI Emoji" font-size="20px" fill="#000000" text-anchor="middle" style="white-space: pre;" direction="ltr">LBM</text></g><g stroke-linecap="round" transform="translate(693.66796875 71.072265625) rotate(0 70.7265625 74.166015625)"><path d="M-0.58 1.2 C55.7 0.39, 111.04 -0.9, 141.38 1.28 M-0.21 -0.94 C37.82 -2.18, 73 -2.11, 142.3 1 M142.21 1.46 C142.44 53.46, 139.04 110.61, 141.51 147.83 M141.94 -0.74 C142.15 30.73, 140.54 60.79, 142.32 147.97 M141.8 147.36 C88.82 148.01, 31.82 151.1, 0.8 147.27 M141.29 147.89 C107.7 148.9, 73.28 148.93, 0.58 149.31 M-0.28 148.46 C-0.25 94.73, 0.31 45.92, 1.4 0.67 M-0.77 148.25 C-0.41 103.55, 0.18 56.37, 0.52 -0.19" stroke="#000000" stroke-width="1" fill="none"></path></g><g transform="translate(776.39453125 104.23828125) rotate(0 62.5 12.5)"><text x="0" y="18" font-family="Virgil, Segoe UI Emoji" font-size="20px" fill="#000000" text-anchor="start" style="white-space: pre;" direction="ltr">place order 1</text></g><g stroke-linecap="round" transform="translate(535.189453125 278.54296875) rotate(0 35.451171875 31.41796875)"><path d="M-0.6 -0.03 C28.78 -0.18, 56.06 0.14, 68.91 1.71 M0.44 0.98 C18.25 -0.27, 38.86 0.26, 71.51 0.4 M72.63 0.66 C72.32 21.24, 70.87 47.08, 71.82 61.85 M71.19 0.76 C71.7 15.19, 71.67 30.58, 70.53 62.21 M72.64 64.81 C51.65 62.66, 34.7 62.02, 0.86 63.72 M70.59 62.94 C47.34 62.96, 24.87 62.98, -0.81 62.44 M0.43 61.69 C-1.02 47.25, 1.83 32.41, -1.68 1.67 M-0.43 61.86 C-0.29 44.18, 0.28 27.71, -0.28 -0.09" stroke="#000000" stroke-width="1" fill="none"></path></g><g transform="translate(537.640625 297.4609375) rotate(0 33 12.5)"><text x="33" y="18" font-family="Virgil, Segoe UI Emoji" font-size="20px" fill="#000000" text-anchor="middle" style="white-space: pre;" direction="ltr">REDIS</text></g><g transform="translate(600.39453125 258.23828125) rotate(0 25.5 12.5)"><text x="0" y="18" font-family="Virgil, Segoe UI Emoji" font-size="20px" fill="#000000" text-anchor="start" style="white-space: pre;" direction="ltr">11:10:11</text></g><g transform="translate(675.39453125 312.23828125) rotate(0 29.5 12.5)"><text x="0" y="18" font-family="Virgil, Segoe UI Emoji" font-size="20px" fill="#000000" text-anchor="start" style="white-space: pre;" direction="ltr">11:10:12</text></g><g transform="translate(652.39453125 258.23828125) rotate(0 12 12.5)"><text x="0" y="18" font-family="Virgil, Segoe UI Emoji" font-size="20px" fill="#000000" text-anchor="start" style="white-space: pre;" direction="ltr">,13</text></g><g stroke-linecap="round" transform="translate(1110.095703125 10) rotate(0 49.1015625 18.548828125)"><path d="M-0.61 0.71 C29.2 -0.97, 58.91 1.91, 99.75 -0.97 M0.81 -0.86 C19.99 -0.41, 40.73 -0.01, 97.53 -0.48 M98.48 1.1 C97.21 10.02, 100.02 18.17, 96.98 36.77 M98.05 -0.03 C98.04 13.39, 98.8 27.88, 97.22 37.22 M99.21 38.08 C69.56 35.64, 43.94 36.25, 1.12 37.36 M99.06 37.66 C75.7 35.96, 51.69 37.32, -0.39 36.63 M-1.83 37.76 C-1.31 23.45, 1.93 8.85, 0.03 -0.86 M-0.36 37.19 C0.74 25.16, -0.49 11.57, -0.29 -0.59" stroke="#000000" stroke-width="1" fill="none"></path></g><g transform="translate(1100.998046875 16.048828125) rotate(0 58.5 12.5)"><text x="58.5" y="18" font-family="Virgil, Segoe UI Emoji" font-size="20px" fill="#000000" text-anchor="middle" style="white-space: pre;" direction="ltr">NOTS(email)</text></g><g stroke-linecap="round" transform="translate(1074.107421875 131.19140625) rotate(0 76.287109375 60.642578125)"><path d="M-1.16 -1.87 C29.94 0.47, 65.04 -1.51, 150.81 1.79 M-0.81 -0.89 C37.42 0.82, 75.9 0.83, 152.03 0.52 M151.39 0.92 C154.36 43.28, 151.52 86.28, 154.25 119.56 M152.73 -0.84 C153.3 43.11, 151.4 87.49, 152.36 122.14 M151.33 119.38 C100.35 120.74, 48.18 122.3, -1.35 121.28 M152.92 120.72 C114.83 122.93, 78.34 121.67, 0.82 121.08 M-1.38 121.81 C2.97 93.33, 1.14 64.33, 0.7 -1.81 M0.41 121.78 C-0.39 77.63, 0.14 34.71, 0.17 0.75" stroke="#000000" stroke-width="1" fill="none"></path></g><g transform="translate(1136.064453125 151.91015625) rotate(0 21 12.5)"><text x="0" y="18" font-family="Virgil, Segoe UI Emoji" font-size="20px" fill="#000000" text-anchor="start" style="white-space: pre;" direction="ltr">user</text></g><g stroke-linecap="round"><g transform="translate(1145.3471038564367 128.99609375) rotate(0 -4.843502157706212 -41.77255400789901)"><path d="M-1.12 -1.08 C-2.78 -14.78, -7.95 -68.91, -9.55 -82.87 M0.49 0.96 C-1.31 -13, -8.13 -70.33, -10.18 -84.51" stroke="#000000" stroke-width="1" fill="none"></path></g><g transform="translate(1145.3471038564367 128.99609375) rotate(0 -4.843502157706212 -41.77255400789901)"><path d="M1.82 -56.87 C0.7 -67.91, -7.25 -74.09, -11.16 -82.89 M2.76 -58.36 C0.22 -64.18, -2.62 -68.89, -9.61 -84.37" stroke="#000000" stroke-width="1" fill="none"></path></g><g transform="translate(1145.3471038564367 128.99609375) rotate(0 -4.843502157706212 -41.77255400789901)"><path d="M-18.53 -54.22 C-12.81 -65.96, -13.92 -73.03, -11.16 -82.89 M-17.59 -55.72 C-15.75 -61.92, -14.23 -67.2, -9.61 -84.37" stroke="#000000" stroke-width="1" fill="none"></path></g></g><g stroke-linecap="round"><g transform="translate(836.03125 89.46484375) rotate(0 138.10009332816117 -28.316675082398582)"><path d="M1.08 -0.59 C47.18 -10.14, 230.52 -48.72, 276.02 -58.35 M0.18 1.72 C46.26 -7.63, 229.54 -47.46, 275.58 -57.35" stroke="#000000" stroke-width="1" fill="none"></path></g><g transform="translate(836.03125 89.46484375) rotate(0 138.10009332816117 -28.316675082398582)"><path d="M249.21 -39.75 C255 -47.24, 261.33 -51.38, 274.6 -58.7 M250.76 -41.23 C257.23 -46.13, 263.55 -48.76, 275.57 -57.97" stroke="#000000" stroke-width="1" fill="none"></path></g><g transform="translate(836.03125 89.46484375) rotate(0 138.10009332816117 -28.316675082398582)"><path d="M244.88 -59.81 C251.58 -62.3, 259 -61.38, 274.6 -58.7 M246.43 -61.29 C253.88 -61.15, 261.29 -58.72, 275.57 -57.97" stroke="#000000" stroke-width="1" fill="none"></path></g></g><g transform="translate(1007.39453125 101.73828125) rotate(0 152 12.5)"><text x="152" y="18" font-family="Virgil, Segoe UI Emoji" font-size="20px" fill="#000000" text-anchor="middle" style="white-space: pre;" direction="ltr">fetch emailid or browserid user</text></g></svg>